<mxfile host="app.diagrams.net" modified="2023-01-10T13:20:41.037Z" agent="5.0 (X11; Ubuntu)" etag="CxJF9XGj4xx0WTgJkz2Z" version="20.8.3" type="github">
  <diagram id="q4nu_dTRn4EXNyHo2I1m" name="Page-1">
    <mxGraphModel dx="1781" dy="659" grid="1" gridSize="10" guides="1" tooltips="1" connect="1" arrows="1" fold="1" page="1" pageScale="1" pageWidth="827" pageHeight="1169" math="0" shadow="0">
      <root>
        <mxCell id="0" />
        <mxCell id="1" parent="0" />
        <mxCell id="xJaQrvHUHkJKm-2dgWnW-74" value="" style="rounded=1;whiteSpace=wrap;html=1;" parent="1" vertex="1">
          <mxGeometry x="400" y="510" width="870" height="290" as="geometry" />
        </mxCell>
        <mxCell id="TDUMUCp_Bqlv6dFGH9P--1" value="" style="rounded=1;whiteSpace=wrap;html=1;" parent="1" vertex="1">
          <mxGeometry x="160" y="280" width="200" height="245" as="geometry" />
        </mxCell>
        <mxCell id="tpRrDk0UnNAOCO52Pq6s-3" value="&lt;div&gt;Instruction Memory&lt;/div&gt;32x16bit" style="rounded=1;whiteSpace=wrap;html=1;" parent="1" vertex="1">
          <mxGeometry x="160" y="615" width="200" height="110" as="geometry" />
        </mxCell>
        <mxCell id="tpRrDk0UnNAOCO52Pq6s-13" value="&lt;div&gt;RX FIFO&lt;/div&gt;&lt;div&gt;4x32bit&lt;br&gt;&lt;/div&gt;" style="rounded=1;whiteSpace=wrap;html=1;fontSize=12;" parent="1" vertex="1">
          <mxGeometry x="160" y="160" width="200" height="80" as="geometry" />
        </mxCell>
        <mxCell id="tpRrDk0UnNAOCO52Pq6s-14" value="&lt;div&gt;TX FIFO&lt;/div&gt;&lt;div&gt;4x32bit&lt;br&gt;&lt;/div&gt;" style="rounded=1;whiteSpace=wrap;html=1;fontSize=12;" parent="1" vertex="1">
          <mxGeometry x="160" y="40" width="200" height="80" as="geometry" />
        </mxCell>
        <mxCell id="xJaQrvHUHkJKm-2dgWnW-31" style="edgeStyle=orthogonalEdgeStyle;rounded=0;orthogonalLoop=1;jettySize=auto;html=1;entryX=1;entryY=0.5;entryDx=0;entryDy=0;fillColor=#0050ef;strokeColor=#001DBC;" parent="1" source="tpRrDk0UnNAOCO52Pq6s-23" target="tpRrDk0UnNAOCO52Pq6s-14" edge="1">
          <mxGeometry relative="1" as="geometry" />
        </mxCell>
        <mxCell id="xJaQrvHUHkJKm-2dgWnW-49" style="edgeStyle=orthogonalEdgeStyle;rounded=0;orthogonalLoop=1;jettySize=auto;html=1;entryX=-0.017;entryY=0.209;entryDx=0;entryDy=0;entryPerimeter=0;endArrow=classic;endFill=1;exitX=1.002;exitY=0.203;exitDx=0;exitDy=0;exitPerimeter=0;startArrow=none;startFill=0;fillColor=#0050ef;strokeColor=#001DBC;" parent="1" source="tpRrDk0UnNAOCO52Pq6s-23" target="xJaQrvHUHkJKm-2dgWnW-2" edge="1">
          <mxGeometry relative="1" as="geometry">
            <Array as="points">
              <mxPoint x="1400" y="56" />
              <mxPoint x="1400" y="80" />
            </Array>
          </mxGeometry>
        </mxCell>
        <mxCell id="xJaQrvHUHkJKm-2dgWnW-53" style="edgeStyle=orthogonalEdgeStyle;rounded=0;orthogonalLoop=1;jettySize=auto;html=1;exitX=1.001;exitY=0.825;exitDx=0;exitDy=0;entryX=0;entryY=0.25;entryDx=0;entryDy=0;startArrow=classic;startFill=1;endArrow=classic;endFill=1;fillColor=#0050ef;strokeColor=#001DBC;exitPerimeter=0;" parent="1" source="tpRrDk0UnNAOCO52Pq6s-23" target="xJaQrvHUHkJKm-2dgWnW-40" edge="1">
          <mxGeometry relative="1" as="geometry">
            <Array as="points">
              <mxPoint x="1140" y="106" />
              <mxPoint x="1140" y="308" />
            </Array>
          </mxGeometry>
        </mxCell>
        <mxCell id="xJaQrvHUHkJKm-2dgWnW-59" style="edgeStyle=orthogonalEdgeStyle;rounded=0;orthogonalLoop=1;jettySize=auto;html=1;entryX=0.75;entryY=0;entryDx=0;entryDy=0;startArrow=classic;startFill=1;endArrow=none;endFill=0;exitX=0.8;exitY=1.027;exitDx=0;exitDy=0;exitPerimeter=0;fillColor=#e51400;strokeColor=#B20000;" parent="1" source="tpRrDk0UnNAOCO52Pq6s-23" target="tpRrDk0UnNAOCO52Pq6s-55" edge="1">
          <mxGeometry relative="1" as="geometry">
            <Array as="points">
              <mxPoint x="1040" y="440" />
              <mxPoint x="750" y="440" />
            </Array>
          </mxGeometry>
        </mxCell>
        <mxCell id="tpRrDk0UnNAOCO52Pq6s-23" value="&lt;div&gt;Ouput Shift Register&lt;/div&gt;&lt;div&gt;1x32bit&lt;br&gt;&lt;/div&gt;" style="rounded=1;whiteSpace=wrap;html=1;fontSize=12;" parent="1" vertex="1">
          <mxGeometry x="880" y="40" width="200" height="80" as="geometry" />
        </mxCell>
        <mxCell id="tpRrDk0UnNAOCO52Pq6s-46" value="Clock Divider" style="rounded=1;whiteSpace=wrap;html=1;fontSize=12;" parent="1" vertex="1">
          <mxGeometry x="420" y="240" width="90" height="60" as="geometry" />
        </mxCell>
        <mxCell id="tpRrDk0UnNAOCO52Pq6s-54" style="edgeStyle=orthogonalEdgeStyle;rounded=0;orthogonalLoop=1;jettySize=auto;html=1;exitX=0.25;exitY=1;exitDx=0;exitDy=0;entryX=1;entryY=0.25;entryDx=0;entryDy=0;strokeWidth=1;fontSize=12;startArrow=none;startFill=0;endArrow=classic;endFill=1;fillColor=#e51400;strokeColor=#B20000;" parent="1" source="tpRrDk0UnNAOCO52Pq6s-48" target="tpRrDk0UnNAOCO52Pq6s-3" edge="1">
          <mxGeometry relative="1" as="geometry">
            <Array as="points">
              <mxPoint x="548" y="620" />
              <mxPoint x="420" y="620" />
              <mxPoint x="420" y="643" />
            </Array>
          </mxGeometry>
        </mxCell>
        <mxCell id="tpRrDk0UnNAOCO52Pq6s-48" value="&lt;div&gt;Program Counter&lt;/div&gt;" style="rounded=1;whiteSpace=wrap;html=1;fontSize=12;" parent="1" vertex="1">
          <mxGeometry x="525" y="535" width="90" height="60" as="geometry" />
        </mxCell>
        <mxCell id="tpRrDk0UnNAOCO52Pq6s-56" style="edgeStyle=orthogonalEdgeStyle;rounded=0;orthogonalLoop=1;jettySize=auto;html=1;exitX=1;exitY=0.5;exitDx=0;exitDy=0;entryX=0;entryY=0.5;entryDx=0;entryDy=0;strokeWidth=1;fontSize=12;startArrow=none;startFill=0;endArrow=classic;endFill=1;fillColor=#60a917;strokeColor=#2D7600;" parent="1" source="tpRrDk0UnNAOCO52Pq6s-3" target="tpRrDk0UnNAOCO52Pq6s-55" edge="1">
          <mxGeometry relative="1" as="geometry">
            <mxPoint x="560" y="670" as="sourcePoint" />
          </mxGeometry>
        </mxCell>
        <mxCell id="xJaQrvHUHkJKm-2dgWnW-63" style="edgeStyle=orthogonalEdgeStyle;rounded=0;orthogonalLoop=1;jettySize=auto;html=1;exitX=1;exitY=0.25;exitDx=0;exitDy=0;startArrow=none;startFill=0;endArrow=classic;endFill=1;fillColor=#008a00;strokeColor=#005700;entryX=-0.008;entryY=0.505;entryDx=0;entryDy=0;entryPerimeter=0;" parent="1" source="tpRrDk0UnNAOCO52Pq6s-55" target="96zB4XMAGKJggMnvEZGN-2" edge="1">
          <mxGeometry relative="1" as="geometry">
            <Array as="points">
              <mxPoint x="780" y="620" />
              <mxPoint x="860" y="620" />
              <mxPoint x="860" y="575" />
              <mxPoint x="969" y="575" />
            </Array>
          </mxGeometry>
        </mxCell>
        <mxCell id="xJaQrvHUHkJKm-2dgWnW-68" style="edgeStyle=orthogonalEdgeStyle;rounded=0;orthogonalLoop=1;jettySize=auto;html=1;entryX=0.75;entryY=1;entryDx=0;entryDy=0;startArrow=none;startFill=0;endArrow=classic;endFill=1;fillColor=#0050ef;strokeColor=#001DBC;" parent="1" source="tpRrDk0UnNAOCO52Pq6s-55" target="xJaQrvHUHkJKm-2dgWnW-2" edge="1">
          <mxGeometry relative="1" as="geometry">
            <Array as="points">
              <mxPoint x="740" y="770" />
              <mxPoint x="1610" y="770" />
            </Array>
          </mxGeometry>
        </mxCell>
        <mxCell id="dYvWncrbLR3BbaJnnN0L-3" style="edgeStyle=orthogonalEdgeStyle;rounded=0;orthogonalLoop=1;jettySize=auto;html=1;entryX=1;entryY=0.5;entryDx=0;entryDy=0;startArrow=none;startFill=0;endArrow=classic;endFill=1;exitX=0.25;exitY=0;exitDx=0;exitDy=0;fillColor=#e51400;strokeColor=#B20000;" parent="1" source="tpRrDk0UnNAOCO52Pq6s-55" target="tpRrDk0UnNAOCO52Pq6s-48" edge="1">
          <mxGeometry relative="1" as="geometry" />
        </mxCell>
        <mxCell id="NFz_0eVvPQC2bbaLFcdi-3" style="edgeStyle=orthogonalEdgeStyle;rounded=0;orthogonalLoop=1;jettySize=auto;html=1;entryX=0;entryY=0.5;entryDx=0;entryDy=0;startArrow=none;startFill=0;exitX=1;exitY=0.75;exitDx=0;exitDy=0;fillColor=#008a00;strokeColor=#005700;" edge="1" parent="1" source="tpRrDk0UnNAOCO52Pq6s-55" target="NFz_0eVvPQC2bbaLFcdi-2">
          <mxGeometry relative="1" as="geometry">
            <Array as="points">
              <mxPoint x="860" y="645" />
              <mxPoint x="860" y="675" />
            </Array>
          </mxGeometry>
        </mxCell>
        <mxCell id="tpRrDk0UnNAOCO52Pq6s-55" value="&lt;div&gt;Instruction Decode&lt;/div&gt;" style="rounded=1;whiteSpace=wrap;html=1;fontSize=12;" parent="1" vertex="1">
          <mxGeometry x="660" y="600" width="120" height="60" as="geometry" />
        </mxCell>
        <mxCell id="xJaQrvHUHkJKm-2dgWnW-56" style="edgeStyle=orthogonalEdgeStyle;rounded=0;orthogonalLoop=1;jettySize=auto;html=1;startArrow=classic;startFill=1;endArrow=classic;endFill=1;fillColor=#0050ef;strokeColor=#001DBC;exitX=1.002;exitY=0.337;exitDx=0;exitDy=0;exitPerimeter=0;" parent="1" source="xJaQrvHUHkJKm-2dgWnW-74" target="tpRrDk0UnNAOCO52Pq6s-23" edge="1">
          <mxGeometry relative="1" as="geometry">
            <mxPoint x="1110" y="70" as="targetPoint" />
            <Array as="points">
              <mxPoint x="1350" y="608" />
              <mxPoint x="1350" y="80" />
            </Array>
          </mxGeometry>
        </mxCell>
        <mxCell id="xJaQrvHUHkJKm-2dgWnW-58" style="edgeStyle=orthogonalEdgeStyle;rounded=0;orthogonalLoop=1;jettySize=auto;html=1;entryX=0.75;entryY=1;entryDx=0;entryDy=0;startArrow=none;startFill=0;endArrow=classic;endFill=1;exitX=0.5;exitY=0;exitDx=0;exitDy=0;fillColor=#e51400;strokeColor=#B20000;" parent="1" source="tpRrDk0UnNAOCO52Pq6s-55" target="xJaQrvHUHkJKm-2dgWnW-26" edge="1">
          <mxGeometry relative="1" as="geometry">
            <Array as="points">
              <mxPoint x="720" y="400" />
              <mxPoint x="790" y="400" />
            </Array>
          </mxGeometry>
        </mxCell>
        <mxCell id="96zB4XMAGKJggMnvEZGN-2" value="Move/Set" style="rounded=1;whiteSpace=wrap;html=1;" parent="1" vertex="1">
          <mxGeometry x="970" y="540" width="190" height="70" as="geometry" />
        </mxCell>
        <mxCell id="xJaQrvHUHkJKm-2dgWnW-44" style="edgeStyle=orthogonalEdgeStyle;rounded=0;orthogonalLoop=1;jettySize=auto;html=1;endArrow=classic;endFill=1;fillColor=#e51400;strokeColor=#B20000;" parent="1" source="TDUMUCp_Bqlv6dFGH9P--4" target="xJaQrvHUHkJKm-2dgWnW-2" edge="1">
          <mxGeometry relative="1" as="geometry">
            <mxPoint x="1260" y="160" as="targetPoint" />
            <Array as="points">
              <mxPoint x="1160" y="455" />
              <mxPoint x="1160" y="160" />
            </Array>
          </mxGeometry>
        </mxCell>
        <mxCell id="TDUMUCp_Bqlv6dFGH9P--4" value="Pin Directions" style="rounded=1;whiteSpace=wrap;html=1;" parent="1" vertex="1">
          <mxGeometry x="170" y="440" width="180" height="30" as="geometry" />
        </mxCell>
        <mxCell id="xJaQrvHUHkJKm-2dgWnW-43" style="edgeStyle=orthogonalEdgeStyle;rounded=0;orthogonalLoop=1;jettySize=auto;html=1;entryX=-0.008;entryY=0.837;entryDx=0;entryDy=0;entryPerimeter=0;fillColor=#e51400;strokeColor=#B20000;" parent="1" source="TDUMUCp_Bqlv6dFGH9P--5" target="xJaQrvHUHkJKm-2dgWnW-2" edge="1">
          <mxGeometry relative="1" as="geometry">
            <mxPoint x="1240" y="210" as="targetPoint" />
            <Array as="points">
              <mxPoint x="1200" y="495" />
              <mxPoint x="1200" y="200" />
              <mxPoint x="1519" y="200" />
            </Array>
          </mxGeometry>
        </mxCell>
        <mxCell id="TDUMUCp_Bqlv6dFGH9P--5" value="&lt;div&gt;Pin Enables&lt;/div&gt;" style="rounded=1;whiteSpace=wrap;html=1;" parent="1" vertex="1">
          <mxGeometry x="170" y="480" width="180" height="30" as="geometry" />
        </mxCell>
        <mxCell id="xJaQrvHUHkJKm-2dgWnW-29" style="edgeStyle=orthogonalEdgeStyle;rounded=0;orthogonalLoop=1;jettySize=auto;html=1;entryX=0.25;entryY=1;entryDx=0;entryDy=0;fillColor=#e51400;strokeColor=#B20000;" parent="1" source="TDUMUCp_Bqlv6dFGH9P--6" target="xJaQrvHUHkJKm-2dgWnW-26" edge="1">
          <mxGeometry relative="1" as="geometry">
            <mxPoint x="680" y="250" as="targetPoint" />
          </mxGeometry>
        </mxCell>
        <mxCell id="xJaQrvHUHkJKm-2dgWnW-33" style="edgeStyle=orthogonalEdgeStyle;rounded=0;orthogonalLoop=1;jettySize=auto;html=1;entryX=0.2;entryY=1;entryDx=0;entryDy=0;entryPerimeter=0;fillColor=#e51400;strokeColor=#B20000;" parent="1" source="TDUMUCp_Bqlv6dFGH9P--6" target="tpRrDk0UnNAOCO52Pq6s-23" edge="1">
          <mxGeometry relative="1" as="geometry" />
        </mxCell>
        <mxCell id="TDUMUCp_Bqlv6dFGH9P--6" value="Auto pull/push thresholds" style="rounded=1;whiteSpace=wrap;html=1;" parent="1" vertex="1">
          <mxGeometry x="170" y="360" width="180" height="30" as="geometry" />
        </mxCell>
        <mxCell id="xJaQrvHUHkJKm-2dgWnW-60" style="edgeStyle=orthogonalEdgeStyle;rounded=0;orthogonalLoop=1;jettySize=auto;html=1;entryX=0;entryY=0.5;entryDx=0;entryDy=0;startArrow=none;startFill=0;endArrow=classic;endFill=1;fillColor=#e51400;strokeColor=#B20000;" parent="1" source="TDUMUCp_Bqlv6dFGH9P--8" target="tpRrDk0UnNAOCO52Pq6s-48" edge="1">
          <mxGeometry relative="1" as="geometry" />
        </mxCell>
        <mxCell id="TDUMUCp_Bqlv6dFGH9P--8" value="Wrap target" style="rounded=1;whiteSpace=wrap;html=1;" parent="1" vertex="1">
          <mxGeometry x="170" y="400" width="180" height="30" as="geometry" />
        </mxCell>
        <mxCell id="TDUMUCp_Bqlv6dFGH9P--9" value="Control/Status Register File" style="text;html=1;strokeColor=none;fillColor=none;align=center;verticalAlign=middle;whiteSpace=wrap;rounded=0;" parent="1" vertex="1">
          <mxGeometry x="180" y="280" width="160" height="30" as="geometry" />
        </mxCell>
        <mxCell id="xJaQrvHUHkJKm-2dgWnW-23" style="edgeStyle=orthogonalEdgeStyle;rounded=0;orthogonalLoop=1;jettySize=auto;html=1;entryX=0.5;entryY=1;entryDx=0;entryDy=0;fillColor=#e51400;strokeColor=#B20000;" parent="1" source="xJaQrvHUHkJKm-2dgWnW-1" target="tpRrDk0UnNAOCO52Pq6s-46" edge="1">
          <mxGeometry relative="1" as="geometry" />
        </mxCell>
        <mxCell id="xJaQrvHUHkJKm-2dgWnW-1" value="Clock Divider Config" style="rounded=1;whiteSpace=wrap;html=1;" parent="1" vertex="1">
          <mxGeometry x="170" y="320" width="180" height="30" as="geometry" />
        </mxCell>
        <mxCell id="xJaQrvHUHkJKm-2dgWnW-45" style="edgeStyle=orthogonalEdgeStyle;rounded=0;orthogonalLoop=1;jettySize=auto;html=1;endArrow=classic;endFill=1;entryX=1;entryY=0.75;entryDx=0;entryDy=0;exitX=0.25;exitY=1;exitDx=0;exitDy=0;fillColor=#0050ef;strokeColor=#001DBC;startArrow=classic;startFill=1;" parent="1" source="xJaQrvHUHkJKm-2dgWnW-2" target="xJaQrvHUHkJKm-2dgWnW-74" edge="1">
          <mxGeometry relative="1" as="geometry">
            <mxPoint x="1300" y="660" as="targetPoint" />
            <Array as="points">
              <mxPoint x="1550" y="727" />
            </Array>
          </mxGeometry>
        </mxCell>
        <mxCell id="xJaQrvHUHkJKm-2dgWnW-51" style="edgeStyle=orthogonalEdgeStyle;rounded=0;orthogonalLoop=1;jettySize=auto;html=1;entryX=1;entryY=0.25;entryDx=0;entryDy=0;endArrow=classic;endFill=1;fillColor=#0050ef;strokeColor=#001DBC;" parent="1" source="xJaQrvHUHkJKm-2dgWnW-2" target="xJaQrvHUHkJKm-2dgWnW-26" edge="1">
          <mxGeometry relative="1" as="geometry">
            <Array as="points">
              <mxPoint x="1080" y="135" />
              <mxPoint x="1080" y="180" />
            </Array>
          </mxGeometry>
        </mxCell>
        <mxCell id="xJaQrvHUHkJKm-2dgWnW-2" value="&lt;div&gt;Pin Register&lt;/div&gt;" style="rounded=1;whiteSpace=wrap;html=1;" parent="1" vertex="1">
          <mxGeometry x="1520" y="40" width="120" height="190" as="geometry" />
        </mxCell>
        <mxCell id="xJaQrvHUHkJKm-2dgWnW-3" value="" style="endArrow=classic;html=1;rounded=0;exitX=1;exitY=0.5;exitDx=0;exitDy=0;fillColor=#0050ef;strokeColor=#001DBC;" parent="1" source="xJaQrvHUHkJKm-2dgWnW-2" edge="1">
          <mxGeometry width="50" height="50" relative="1" as="geometry">
            <mxPoint x="1670" y="445" as="sourcePoint" />
            <mxPoint x="1710" y="135" as="targetPoint" />
          </mxGeometry>
        </mxCell>
        <mxCell id="xJaQrvHUHkJKm-2dgWnW-4" value="Mapped to GPIO pins" style="text;html=1;align=center;verticalAlign=middle;resizable=0;points=[];autosize=1;strokeColor=none;fillColor=none;" parent="1" vertex="1">
          <mxGeometry x="1710" y="120" width="140" height="30" as="geometry" />
        </mxCell>
        <mxCell id="xJaQrvHUHkJKm-2dgWnW-7" value="" style="endArrow=classic;html=1;rounded=0;entryX=0;entryY=0.5;entryDx=0;entryDy=0;fillColor=#60a917;strokeColor=#2D7600;" parent="1" target="tpRrDk0UnNAOCO52Pq6s-3" edge="1">
          <mxGeometry width="50" height="50" relative="1" as="geometry">
            <mxPoint x="40" y="670" as="sourcePoint" />
            <mxPoint x="110" y="660" as="targetPoint" />
          </mxGeometry>
        </mxCell>
        <mxCell id="xJaQrvHUHkJKm-2dgWnW-8" value="Write-only memory port" style="text;html=1;align=center;verticalAlign=middle;resizable=0;points=[];autosize=1;strokeColor=none;fillColor=none;" parent="1" vertex="1">
          <mxGeometry x="-10" y="615" width="150" height="30" as="geometry" />
        </mxCell>
        <mxCell id="xJaQrvHUHkJKm-2dgWnW-9" value="" style="endArrow=classic;html=1;rounded=0;entryX=0.005;entryY=0.555;entryDx=0;entryDy=0;entryPerimeter=0;fillColor=#e51400;strokeColor=#B20000;" parent="1" target="TDUMUCp_Bqlv6dFGH9P--1" edge="1">
          <mxGeometry width="50" height="50" relative="1" as="geometry">
            <mxPoint x="50" y="415" as="sourcePoint" />
            <mxPoint x="60" y="380" as="targetPoint" />
          </mxGeometry>
        </mxCell>
        <mxCell id="xJaQrvHUHkJKm-2dgWnW-10" value="Read/write memory port" style="text;html=1;align=center;verticalAlign=middle;resizable=0;points=[];autosize=1;strokeColor=none;fillColor=none;" parent="1" vertex="1">
          <mxGeometry y="380" width="150" height="30" as="geometry" />
        </mxCell>
        <mxCell id="xJaQrvHUHkJKm-2dgWnW-11" value="" style="endArrow=none;html=1;rounded=0;exitX=0;exitY=0.5;exitDx=0;exitDy=0;fillColor=#0050ef;strokeColor=#001DBC;startArrow=classic;startFill=1;endFill=0;" parent="1" source="tpRrDk0UnNAOCO52Pq6s-14" edge="1">
          <mxGeometry width="50" height="50" relative="1" as="geometry">
            <mxPoint x="50" y="110" as="sourcePoint" />
            <mxPoint x="40" y="80" as="targetPoint" />
          </mxGeometry>
        </mxCell>
        <mxCell id="xJaQrvHUHkJKm-2dgWnW-13" value="" style="endArrow=none;html=1;rounded=0;entryX=0;entryY=0.5;entryDx=0;entryDy=0;fillColor=#0050ef;strokeColor=#001DBC;startArrow=classic;startFill=1;endFill=0;" parent="1" target="tpRrDk0UnNAOCO52Pq6s-13" edge="1">
          <mxGeometry width="50" height="50" relative="1" as="geometry">
            <mxPoint x="40" y="200" as="sourcePoint" />
            <mxPoint x="70" y="190" as="targetPoint" />
          </mxGeometry>
        </mxCell>
        <mxCell id="xJaQrvHUHkJKm-2dgWnW-14" value="&lt;div&gt;Data out&lt;/div&gt;" style="text;html=1;align=center;verticalAlign=middle;resizable=0;points=[];autosize=1;strokeColor=none;fillColor=none;" parent="1" vertex="1">
          <mxGeometry x="60" y="170" width="70" height="30" as="geometry" />
        </mxCell>
        <mxCell id="xJaQrvHUHkJKm-2dgWnW-15" value="Data in" style="text;html=1;align=center;verticalAlign=middle;resizable=0;points=[];autosize=1;strokeColor=none;fillColor=none;" parent="1" vertex="1">
          <mxGeometry x="65" y="50" width="60" height="30" as="geometry" />
        </mxCell>
        <mxCell id="xJaQrvHUHkJKm-2dgWnW-19" value="" style="endArrow=classic;html=1;rounded=0;entryX=0;entryY=0.5;entryDx=0;entryDy=0;fillColor=#e51400;strokeColor=#B20000;" parent="1" target="tpRrDk0UnNAOCO52Pq6s-46" edge="1">
          <mxGeometry width="50" height="50" relative="1" as="geometry">
            <mxPoint x="40" y="270" as="sourcePoint" />
            <mxPoint x="90" y="250" as="targetPoint" />
          </mxGeometry>
        </mxCell>
        <mxCell id="xJaQrvHUHkJKm-2dgWnW-21" value="Input Clock" style="text;html=1;align=center;verticalAlign=middle;resizable=0;points=[];autosize=1;strokeColor=none;fillColor=none;" parent="1" vertex="1">
          <mxGeometry x="40" y="240" width="80" height="30" as="geometry" />
        </mxCell>
        <mxCell id="xJaQrvHUHkJKm-2dgWnW-24" value="" style="endArrow=classic;html=1;rounded=0;fillColor=#e51400;strokeColor=#B20000;" parent="1" edge="1">
          <mxGeometry width="50" height="50" relative="1" as="geometry">
            <mxPoint x="510" y="270" as="sourcePoint" />
            <mxPoint x="580" y="270" as="targetPoint" />
          </mxGeometry>
        </mxCell>
        <mxCell id="xJaQrvHUHkJKm-2dgWnW-25" value="PIO system clock" style="text;html=1;strokeColor=none;fillColor=none;align=center;verticalAlign=middle;whiteSpace=wrap;rounded=0;" parent="1" vertex="1">
          <mxGeometry x="520" y="270" width="110" height="30" as="geometry" />
        </mxCell>
        <mxCell id="xJaQrvHUHkJKm-2dgWnW-32" style="edgeStyle=orthogonalEdgeStyle;rounded=0;orthogonalLoop=1;jettySize=auto;html=1;fillColor=#0050ef;strokeColor=#001DBC;startArrow=none;startFill=0;endArrow=classic;endFill=1;" parent="1" source="xJaQrvHUHkJKm-2dgWnW-26" target="tpRrDk0UnNAOCO52Pq6s-13" edge="1">
          <mxGeometry relative="1" as="geometry" />
        </mxCell>
        <mxCell id="xJaQrvHUHkJKm-2dgWnW-54" style="edgeStyle=orthogonalEdgeStyle;rounded=0;orthogonalLoop=1;jettySize=auto;html=1;startArrow=classic;startFill=1;endArrow=classic;endFill=1;fillColor=#0050ef;strokeColor=#001DBC;exitX=1.001;exitY=0.83;exitDx=0;exitDy=0;exitPerimeter=0;" parent="1" source="xJaQrvHUHkJKm-2dgWnW-26" target="xJaQrvHUHkJKm-2dgWnW-74" edge="1">
          <mxGeometry relative="1" as="geometry">
            <Array as="points">
              <mxPoint x="960" y="226" />
              <mxPoint x="960" y="390" />
              <mxPoint x="1180" y="390" />
            </Array>
          </mxGeometry>
        </mxCell>
        <mxCell id="xJaQrvHUHkJKm-2dgWnW-26" value="&lt;div&gt;Input Shift Register&lt;/div&gt;&lt;div&gt;1x32bit&lt;br&gt;&lt;/div&gt;" style="rounded=1;whiteSpace=wrap;html=1;fontSize=12;" parent="1" vertex="1">
          <mxGeometry x="640" y="160" width="200" height="80" as="geometry" />
        </mxCell>
        <mxCell id="xJaQrvHUHkJKm-2dgWnW-52" style="edgeStyle=orthogonalEdgeStyle;rounded=0;orthogonalLoop=1;jettySize=auto;html=1;entryX=1;entryY=0.5;entryDx=0;entryDy=0;endArrow=classic;endFill=1;startArrow=classic;startFill=1;exitX=0;exitY=0.75;exitDx=0;exitDy=0;fillColor=#0050ef;strokeColor=#001DBC;" parent="1" source="xJaQrvHUHkJKm-2dgWnW-40" target="xJaQrvHUHkJKm-2dgWnW-26" edge="1">
          <mxGeometry relative="1" as="geometry">
            <Array as="points">
              <mxPoint x="1090" y="343" />
              <mxPoint x="1090" y="200" />
            </Array>
          </mxGeometry>
        </mxCell>
        <mxCell id="xJaQrvHUHkJKm-2dgWnW-57" style="edgeStyle=orthogonalEdgeStyle;rounded=0;orthogonalLoop=1;jettySize=auto;html=1;startArrow=classic;startFill=1;endArrow=classic;endFill=1;exitX=0.5;exitY=1;exitDx=0;exitDy=0;fillColor=#0050ef;strokeColor=#001DBC;entryX=1;entryY=0.5;entryDx=0;entryDy=0;" parent="1" source="xJaQrvHUHkJKm-2dgWnW-40" target="xJaQrvHUHkJKm-2dgWnW-74" edge="1">
          <mxGeometry relative="1" as="geometry">
            <Array as="points">
              <mxPoint x="1455" y="655" />
            </Array>
            <mxPoint x="1270" y="703" as="targetPoint" />
          </mxGeometry>
        </mxCell>
        <mxCell id="xJaQrvHUHkJKm-2dgWnW-40" value="&lt;div&gt;Scratch Registers&lt;/div&gt;&lt;div&gt;2x32 bit&lt;br&gt;&lt;/div&gt;" style="rounded=1;whiteSpace=wrap;html=1;fontSize=12;" parent="1" vertex="1">
          <mxGeometry x="1380" y="290" width="150" height="70" as="geometry" />
        </mxCell>
        <mxCell id="xJaQrvHUHkJKm-2dgWnW-64" value="Move/Set " style="text;html=1;align=center;verticalAlign=middle;resizable=0;points=[];autosize=1;strokeColor=none;fillColor=none;" parent="1" vertex="1">
          <mxGeometry x="840" y="550" width="70" height="30" as="geometry" />
        </mxCell>
        <mxCell id="xJaQrvHUHkJKm-2dgWnW-67" value="&lt;div&gt;Mov/Set go through move unit&lt;br&gt;&lt;/div&gt;&lt;div&gt;Jump/Wait go through Branching Unit&lt;br&gt;&lt;/div&gt;&lt;div&gt;Push/Pull/In/Out control signals sent from decode stage&lt;br&gt;&lt;/div&gt;" style="text;html=1;align=left;verticalAlign=middle;resizable=0;points=[];autosize=1;strokeColor=none;fillColor=none;" parent="1" vertex="1">
          <mxGeometry x="710" y="800" width="320" height="60" as="geometry" />
        </mxCell>
        <mxCell id="xJaQrvHUHkJKm-2dgWnW-69" value="Side Set" style="text;html=1;align=center;verticalAlign=middle;resizable=0;points=[];autosize=1;strokeColor=none;fillColor=none;" parent="1" vertex="1">
          <mxGeometry x="670" y="740" width="70" height="30" as="geometry" />
        </mxCell>
        <mxCell id="xJaQrvHUHkJKm-2dgWnW-71" value="Wait/Stall" style="text;html=1;align=center;verticalAlign=middle;resizable=0;points=[];autosize=1;strokeColor=none;fillColor=none;" parent="1" vertex="1">
          <mxGeometry x="620" y="695" width="70" height="30" as="geometry" />
        </mxCell>
        <mxCell id="xJaQrvHUHkJKm-2dgWnW-75" value="&lt;font style=&quot;font-size: 13px;&quot;&gt;&lt;b&gt;Execution Unit&lt;/b&gt;&lt;/font&gt;" style="text;html=1;strokeColor=none;fillColor=none;align=left;verticalAlign=middle;whiteSpace=wrap;rounded=0;" parent="1" vertex="1">
          <mxGeometry x="440" y="770" width="116" height="30" as="geometry" />
        </mxCell>
        <mxCell id="dYvWncrbLR3BbaJnnN0L-4" value="Jump target" style="text;html=1;strokeColor=none;fillColor=none;align=center;verticalAlign=middle;whiteSpace=wrap;rounded=0;" parent="1" vertex="1">
          <mxGeometry x="510" y="720" width="80" height="30" as="geometry" />
        </mxCell>
        <mxCell id="dYvWncrbLR3BbaJnnN0L-5" value="Stall control" style="text;html=1;strokeColor=none;fillColor=none;align=center;verticalAlign=middle;whiteSpace=wrap;rounded=0;" parent="1" vertex="1">
          <mxGeometry x="615" y="565" width="80" height="30" as="geometry" />
        </mxCell>
        <mxCell id="NFz_0eVvPQC2bbaLFcdi-6" style="edgeStyle=orthogonalEdgeStyle;rounded=0;orthogonalLoop=1;jettySize=auto;html=1;entryX=0.75;entryY=1;entryDx=0;entryDy=0;startArrow=none;startFill=0;endArrow=classic;endFill=1;exitX=0.75;exitY=1;exitDx=0;exitDy=0;fillColor=#008a00;strokeColor=#005700;" edge="1" parent="1" source="NFz_0eVvPQC2bbaLFcdi-2" target="tpRrDk0UnNAOCO52Pq6s-48">
          <mxGeometry relative="1" as="geometry">
            <Array as="points">
              <mxPoint x="1010" y="705" />
              <mxPoint x="1010" y="780" />
              <mxPoint x="593" y="780" />
            </Array>
          </mxGeometry>
        </mxCell>
        <mxCell id="NFz_0eVvPQC2bbaLFcdi-2" value="Branch" style="rounded=1;whiteSpace=wrap;html=1;" vertex="1" parent="1">
          <mxGeometry x="970" y="645" width="80" height="60" as="geometry" />
        </mxCell>
        <mxCell id="NFz_0eVvPQC2bbaLFcdi-4" value="&lt;div&gt;Jump&lt;/div&gt;" style="text;html=1;align=center;verticalAlign=middle;resizable=0;points=[];autosize=1;strokeColor=none;fillColor=none;" vertex="1" parent="1">
          <mxGeometry x="870" y="645" width="50" height="30" as="geometry" />
        </mxCell>
        <mxCell id="NFz_0eVvPQC2bbaLFcdi-8" style="edgeStyle=orthogonalEdgeStyle;rounded=0;orthogonalLoop=1;jettySize=auto;html=1;entryX=0.25;entryY=1;entryDx=0;entryDy=0;startArrow=none;startFill=0;endArrow=classic;endFill=1;fillColor=#008a00;strokeColor=#005700;" edge="1" parent="1" source="NFz_0eVvPQC2bbaLFcdi-7" target="tpRrDk0UnNAOCO52Pq6s-55">
          <mxGeometry relative="1" as="geometry">
            <Array as="points">
              <mxPoint x="1120" y="730" />
              <mxPoint x="690" y="730" />
            </Array>
          </mxGeometry>
        </mxCell>
        <mxCell id="NFz_0eVvPQC2bbaLFcdi-7" value="&lt;div&gt;Wait&lt;/div&gt;" style="rounded=1;whiteSpace=wrap;html=1;" vertex="1" parent="1">
          <mxGeometry x="1080" y="645" width="80" height="60" as="geometry" />
        </mxCell>
      </root>
    </mxGraphModel>
  </diagram>
</mxfile>
